<mxfile host="app.diagrams.net" agent="Mozilla/5.0 (Macintosh; Intel Mac OS X 10_15_7) AppleWebKit/537.36 (KHTML, like Gecko) Chrome/136.0.0.0 Safari/537.36" version="26.2.14">
  <diagram name="Page-1" id="TbmlqJ8jfx_6Bz7wxHrU">
    <mxGraphModel dx="1426" dy="829" grid="1" gridSize="10" guides="1" tooltips="1" connect="1" arrows="1" fold="1" page="1" pageScale="1" pageWidth="827" pageHeight="1169" math="0" shadow="0">
      <root>
        <mxCell id="0" />
        <mxCell id="1" parent="0" />
        <mxCell id="MDcvzA1bZUQA_k96LnVg-1" value="Vertical Container" style="swimlane;whiteSpace=wrap;html=1;" vertex="1" parent="1">
          <mxGeometry x="60" y="210" width="270" height="250" as="geometry" />
        </mxCell>
        <mxCell id="MDcvzA1bZUQA_k96LnVg-6" value="-Services Layout" style="text;html=1;align=center;verticalAlign=middle;resizable=0;points=[];autosize=1;strokeColor=none;fillColor=none;" vertex="1" parent="MDcvzA1bZUQA_k96LnVg-1">
          <mxGeometry x="20" y="50" width="110" height="30" as="geometry" />
        </mxCell>
        <mxCell id="MDcvzA1bZUQA_k96LnVg-10" value="-Data flow arrows" style="text;html=1;align=center;verticalAlign=middle;resizable=0;points=[];autosize=1;strokeColor=none;fillColor=none;" vertex="1" parent="MDcvzA1bZUQA_k96LnVg-1">
          <mxGeometry x="15" y="90" width="120" height="30" as="geometry" />
        </mxCell>
        <mxCell id="MDcvzA1bZUQA_k96LnVg-11" value="-Load Balancers" style="text;html=1;align=center;verticalAlign=middle;resizable=0;points=[];autosize=1;strokeColor=none;fillColor=none;" vertex="1" parent="MDcvzA1bZUQA_k96LnVg-1">
          <mxGeometry x="20" y="180" width="110" height="30" as="geometry" />
        </mxCell>
        <mxCell id="MDcvzA1bZUQA_k96LnVg-12" value="-APIs / gateways" style="text;html=1;align=center;verticalAlign=middle;resizable=0;points=[];autosize=1;strokeColor=none;fillColor=none;" vertex="1" parent="MDcvzA1bZUQA_k96LnVg-1">
          <mxGeometry x="20" y="130" width="110" height="30" as="geometry" />
        </mxCell>
        <mxCell id="MDcvzA1bZUQA_k96LnVg-2" value="Vertical Container" style="swimlane;whiteSpace=wrap;html=1;" vertex="1" parent="1">
          <mxGeometry x="500" y="210" width="240" height="250" as="geometry" />
        </mxCell>
        <mxCell id="MDcvzA1bZUQA_k96LnVg-15" value="-Method Logic" style="text;html=1;align=center;verticalAlign=middle;resizable=0;points=[];autosize=1;strokeColor=none;fillColor=none;" vertex="1" parent="MDcvzA1bZUQA_k96LnVg-2">
          <mxGeometry x="5" y="90" width="100" height="30" as="geometry" />
        </mxCell>
        <mxCell id="MDcvzA1bZUQA_k96LnVg-18" value="- Code-Level Design" style="text;html=1;align=center;verticalAlign=middle;resizable=0;points=[];autosize=1;strokeColor=none;fillColor=none;" vertex="1" parent="MDcvzA1bZUQA_k96LnVg-2">
          <mxGeometry x="5" y="170" width="130" height="30" as="geometry" />
        </mxCell>
        <mxCell id="MDcvzA1bZUQA_k96LnVg-3" value="&lt;font style=&quot;font-size: 24px;&quot;&gt;High Level Design vs Low Level Design&lt;/font&gt;" style="text;html=1;align=center;verticalAlign=middle;whiteSpace=wrap;rounded=0;" vertex="1" parent="1">
          <mxGeometry x="150" y="60" width="500" height="30" as="geometry" />
        </mxCell>
        <mxCell id="MDcvzA1bZUQA_k96LnVg-4" value="crafted by Prakash Karuppusamy" style="shape=step;perimeter=stepPerimeter;whiteSpace=wrap;html=1;fixedSize=1;" vertex="1" parent="1">
          <mxGeometry x="414" y="690" width="370" height="80" as="geometry" />
        </mxCell>
        <mxCell id="MDcvzA1bZUQA_k96LnVg-14" value="-Class Diagrams" style="text;html=1;align=center;verticalAlign=middle;resizable=0;points=[];autosize=1;strokeColor=none;fillColor=none;" vertex="1" parent="1">
          <mxGeometry x="505" y="258" width="110" height="30" as="geometry" />
        </mxCell>
        <mxCell id="MDcvzA1bZUQA_k96LnVg-17" value="&amp;nbsp; &amp;nbsp; &amp;nbsp;-Table Structure" style="text;html=1;align=center;verticalAlign=middle;resizable=0;points=[];autosize=1;strokeColor=none;fillColor=none;" vertex="1" parent="1">
          <mxGeometry x="490" y="338" width="120" height="30" as="geometry" />
        </mxCell>
      </root>
    </mxGraphModel>
  </diagram>
</mxfile>
